<svg width="22" height="22" viewBox="0 0 22 22" fill="#F25F4C" xmlns="http://www.w3.org/2000/svg">
<path d="M20.2322 5.55656L16.7999 2.10669C16.5731 1.88103 16.2661 1.75435 15.9462 1.75435C15.6262 1.75435 15.3193 1.88103 15.0925 2.10669L2.92442 14.2572L1.81345 19.0519C1.77512 19.2272 1.77644 19.4088 1.81729 19.5835C1.85815 19.7582 1.93751 19.9216 2.04959 20.0617C2.16167 20.2018 2.30363 20.3151 2.46511 20.3933C2.62658 20.4715 2.80348 20.5127 2.98289 20.5138C3.06649 20.5222 3.15072 20.5222 3.23432 20.5138L8.08167 19.4028L20.2322 7.26395C20.4579 7.03713 20.5845 6.7302 20.5845 6.41025C20.5845 6.0903 20.4579 5.78337 20.2322 5.55656ZM7.49695 18.3503L2.95365 19.3034L3.98861 14.8478L13.0927 5.77875L16.6011 9.28708L7.49695 18.3503ZM17.3846 8.43924L13.8763 4.9309L15.9111 2.90776L19.361 6.4161L17.3846 8.43924Z"/>
</svg>
