<svg width="22" height="22" viewBox="0 0 22 22" fill="#F25F4C" xmlns="http://www.w3.org/2000/svg">
<path d="M12.276 4.90167C12.276 4.48296 12.1096 4.08139 11.8136 3.78532C11.5175 3.48925 11.1159 3.32292 10.6972 3.32292C10.2785 3.32292 9.87695 3.48925 9.58087 3.78532C9.2848 4.08139 9.11847 4.48296 9.11847 4.90167H8.06597C8.06597 4.20382 8.34319 3.53455 8.83664 3.04109C9.3301 2.54764 9.99937 2.27042 10.6972 2.27042C11.3951 2.27042 12.0643 2.54764 12.5578 3.04109C13.0512 3.53455 13.3285 4.20382 13.3285 4.90167H18.0647C18.2043 4.90167 18.3381 4.95711 18.4368 5.0558C18.5355 5.15449 18.591 5.28835 18.591 5.42792C18.591 5.56749 18.5355 5.70134 18.4368 5.80003C18.3381 5.89872 18.2043 5.95417 18.0647 5.95417H17.4816L16.1176 17.7737C16.0582 18.2867 15.8123 18.76 15.4267 19.1035C15.0411 19.447 14.5427 19.6367 14.0263 19.6367H7.36816C6.85175 19.6367 6.35333 19.447 5.96772 19.1035C5.58211 18.76 5.33623 18.2867 5.27684 17.7737L3.91175 5.95417H3.32972C3.20655 5.95421 3.08727 5.91104 2.99264 5.83219C2.89802 5.75334 2.83406 5.6438 2.81189 5.52264L2.80347 5.42792C2.80347 5.28835 2.85891 5.15449 2.9576 5.0558C3.05629 4.95711 3.19015 4.90167 3.32972 4.90167H12.276ZM16.4207 5.95417H4.97267L6.32197 17.6527C6.35168 17.9093 6.4747 18.146 6.66761 18.3177C6.86052 18.4895 7.10986 18.5843 7.36816 18.5842H14.0263C14.2844 18.5841 14.5335 18.4891 14.7262 18.3174C14.9189 18.1457 15.0417 17.9091 15.0714 17.6527L16.4207 5.95417ZM9.11847 8.58542C9.37633 8.58542 9.59209 8.74855 9.6363 8.96326L9.64472 9.04641V15.493C9.64472 15.7466 9.40896 15.9529 9.11847 15.9529C8.8606 15.9529 8.64484 15.7898 8.60064 15.5751L8.59222 15.4919V9.04746C8.59222 8.79276 8.82798 8.58647 9.11847 8.58647V8.58542ZM12.276 8.58542C12.5338 8.58542 12.7496 8.74855 12.7938 8.96326L12.8022 9.04641V15.493C12.8022 15.7466 12.5665 15.9529 12.276 15.9529C12.0181 15.9529 11.8023 15.7898 11.7581 15.5751L11.7497 15.4919V9.04746C11.7497 8.79276 11.9855 8.58647 12.276 8.58647V8.58542Z"/>
</svg>
